<svg xmlns="http://www.w3.org/2000/svg" width="133.461" height="22.164" viewBox="0 0 133.461 22.164">
  <g id="Group_145" data-name="Group 145" transform="translate(1219.222 -1303.509)">
    <g id="Group_53" data-name="Group 53" transform="translate(-1189.752 1306.278)">
      <g id="Group_51" data-name="Group 51" transform="translate(0 0)">
        <path id="Path_44" data-name="Path 44" d="M-956.083,1340.359v-5.681h-5.962v5.681h-2.983v-12.968h2.983v4.389h5.962v-4.389h2.983v12.968Z" transform="translate(965.028 -1327.391)" fill="#ff9100"/>
        <path id="Path_45" data-name="Path 45" d="M-851.248,1377.922l1.624-3.848-4.06-8.666h3.036l2.453,5.278,2.224-5.278h3.215l-5.492,12.514Z" transform="translate(866.593 -1361)" fill="#ff9100"/>
        <path id="Path_46" data-name="Path 46" d="M-753.173,1368.2a4.34,4.34,0,0,1-4.254,4.466,4.273,4.273,0,0,1-2.347-.653v4.448h-2.859v-12.532h2.859v.673a4.388,4.388,0,0,1,2.347-.868A4.329,4.329,0,0,1-753.173,1368.2Zm-2.807,0a2.041,2.041,0,0,0-2.012-2.136,2.216,2.216,0,0,0-1.783.812v2.648a2.2,2.2,0,0,0,1.783.794A2.026,2.026,0,0,0-755.98,1368.2Z" transform="translate(786.099 -1359.519)" fill="#ff9100"/>
        <path id="Path_47" data-name="Path 47" d="M-664.288,1368.992l.018.053h-6.107a1.848,1.848,0,0,0,1.924,1.377,1.473,1.473,0,0,0,1.306-.618h2.824a3.968,3.968,0,0,1-4.166,2.877,4.371,4.371,0,0,1-4.677-4.483,4.3,4.3,0,0,1,4.554-4.466,4.166,4.166,0,0,1,4.377,4.289A5.979,5.979,0,0,1-664.288,1368.992Zm-6.125-1.624h3.495a1.586,1.586,0,0,0-1.694-1.43A1.748,1.748,0,0,0-670.413,1367.368Z" transform="translate(707.003 -1359.519)" fill="#ff9100"/>
        <path id="Path_48" data-name="Path 48" d="M-583.271,1368v4.889h-2.859v-8.561h2.859v.918a4.285,4.285,0,0,1,2.948-1.059l-.429,2.718A3.067,3.067,0,0,0-583.271,1368Z" transform="translate(630.057 -1359.923)" fill="#ff9100"/>
        <path id="Path_49" data-name="Path 49" d="M-448.82,1352.025c-2.065,0-3.442-1.518-3.442-3.83v-7.907h2.859v2.912h3.234l-1.18,2.453H-449.4v2.453a1.179,1.179,0,0,0,1.341,1.288,4.41,4.41,0,0,0,1.125-.137l1.07,2.327A9.58,9.58,0,0,1-448.82,1352.025Z" transform="translate(511.709 -1338.792)" fill="#ff9100"/>
        <path id="Path_50" data-name="Path 50" d="M-391.078,1372.487v-.477a4.274,4.274,0,0,1-2.347.653,4.34,4.34,0,0,1-4.254-4.466,4.329,4.329,0,0,1,4.254-4.466,4.275,4.275,0,0,1,2.347.653v-.459h2.859v8.56Zm0-2.965v-2.648a2.217,2.217,0,0,0-1.783-.812,2.041,2.041,0,0,0-2.012,2.136,2.026,2.026,0,0,0,2.012,2.118A2.2,2.2,0,0,0-391.078,1369.522Z" transform="translate(463.454 -1359.519)" fill="#ff9100"/>
        <path id="Path_51" data-name="Path 51" d="M-221.681,1351.046h-2.859v-11.567h2.859v6.218l2.983-3.212h3.406l-3.248,3.495,3.53,5.066h-3.424l-2.047-2.965-1.2,1.289Z" transform="translate(310.388 -1338.078)" fill="#ff9100"/>
        <path id="Path_52" data-name="Path 52" d="M-134.951,1370.365c.759,0,1.218-.229,1.218-.6,0-.282-.265-.512-.83-.6l-1.73-.3c-1.483-.247-2.506-1.076-2.506-2.577,0-1.8,1.536-2.859,3.813-2.859,1.818,0,3.883.706,4.007,2.965h-2.542c-.053-.653-.653-.953-1.447-.953-.741,0-1.077.282-1.077.617,0,.283.212.547.883.671l1.606.265c1.606.3,2.665,1.077,2.665,2.595,0,1.977-1.783,2.895-4.007,2.895-2.242,0-4.06-.936-4.236-3.213l2.542.018C-136.469,1370.03-135.851,1370.365-134.951,1370.365Z" transform="translate(234.883 -1359.25)" fill="#ff9100"/>
        <path id="Path_53" data-name="Path 53" d="M-527.687,1370.365c.759,0,1.218-.229,1.218-.6,0-.282-.265-.512-.83-.6l-1.73-.3c-1.483-.247-2.506-1.076-2.506-2.577,0-1.8,1.536-2.859,3.813-2.859,1.818,0,3.883.706,4.007,2.965h-2.542c-.053-.653-.653-.953-1.448-.953-.741,0-1.077.282-1.077.617,0,.283.212.547.883.671l1.606.265c1.606.3,2.665,1.077,2.665,2.595,0,1.977-1.783,2.895-4.007,2.895-2.242,0-4.06-.936-4.236-3.213l2.542.018C-529.2,1370.03-528.587,1370.365-527.687,1370.365Z" transform="translate(582.088 -1359.25)" fill="#ff9100"/>
      </g>
      <g id="Group_52" data-name="Group 52" transform="translate(76.193 4.213)">
        <path id="Path_54" data-name="Path 54" d="M-303.8,1370.263a1.919,1.919,0,0,1-1.959-2.065,1.9,1.9,0,0,1,1.959-2.047,1.6,1.6,0,0,1,1.677,1.288h2.7a4.129,4.129,0,0,0-4.377-3.707,4.636,4.636,0,0,0-3.9,1.9.631.631,0,0,0-.115.361v4.429a.631.631,0,0,0,.114.36,4.629,4.629,0,0,0,3.9,1.9,4.129,4.129,0,0,0,4.377-3.706h-2.7A1.6,1.6,0,0,1-303.8,1370.263Z" transform="translate(307.816 -1363.732)" fill="#ff9100"/>
      </g>
    </g>
    <g id="Group_56" data-name="Group 56" transform="translate(-1219.222 1303.509)">
      <g id="Group_54" data-name="Group 54">
        <path id="Path_55" data-name="Path 55" d="M-1197.058,1374.5v3.479a.443.443,0,0,1-.443.443h-19.508a2.214,2.214,0,0,1-2.214-2.214v-3.479a.443.443,0,0,1,.443-.443h19.508A2.214,2.214,0,0,1-1197.058,1374.5Z" transform="translate(1219.222 -1364.309)" fill="#ff9100"/>
        <path id="Path_56" data-name="Path 56" d="M-1132.5,1442.119v5.261a.443.443,0,0,1-.443.443h-11.042a2.214,2.214,0,0,1-2.214-2.214v-3.49a.443.443,0,0,1,.443-.443h12.813A.443.443,0,0,1-1132.5,1442.119Z" transform="translate(1154.663 -1425.658)" fill="#ff9100"/>
        <path id="Path_57" data-name="Path 57" d="M-1205.524,1305.723v3.489a.443.443,0,0,1-.443.443h-12.813a.443.443,0,0,1-.443-.443v-5.261a.443.443,0,0,1,.443-.443h11.042A2.214,2.214,0,0,1-1205.524,1305.723Z" transform="translate(1219.222 -1303.509)" fill="#ff9100"/>
      </g>
      <g id="Group_55" data-name="Group 55">
        <path id="Path_58" data-name="Path 58" d="M-1197.058,1374.5v3.479a.443.443,0,0,1-.443.443h-19.508a2.214,2.214,0,0,1-2.214-2.214v-3.479a.443.443,0,0,1,.443-.443h19.508A2.214,2.214,0,0,1-1197.058,1374.5Z" transform="translate(1219.222 -1364.309)" fill="#ff9100"/>
        <path id="Path_59" data-name="Path 59" d="M-1132.5,1442.119v5.261a.443.443,0,0,1-.443.443h-11.042a2.214,2.214,0,0,1-2.214-2.214v-3.49a.443.443,0,0,1,.443-.443h12.813A.443.443,0,0,1-1132.5,1442.119Z" transform="translate(1154.663 -1425.658)" fill="#ff9100"/>
        <path id="Path_60" data-name="Path 60" d="M-1205.524,1305.723v3.489a.443.443,0,0,1-.443.443h-12.813a.443.443,0,0,1-.443-.443v-5.261a.443.443,0,0,1,.443-.443h11.042A2.214,2.214,0,0,1-1205.524,1305.723Z" transform="translate(1219.222 -1303.509)" fill="#ff9100"/>
      </g>
    </g>
  </g>
</svg>
